<?xml version="1.0" standalone="no"?>
<!DOCTYPE svg PUBLIC "-//W3C//DTD SVG 20010904//EN"
 "http://www.w3.org/TR/2001/REC-SVG-20010904/DTD/svg10.dtd">
<svg version="1.0" xmlns="http://www.w3.org/2000/svg"
 width="300" height="100" viewBox="0 0 700.000000 350.000000"
 preserveAspectRatio="xMidYMid meet">

<g transform="translate(0.000000,350.000000) scale(0.100000,-0.100000)"
fill="#000000" stroke="none">
<path d="M1735 2568 c-3 -13 -20 -98 -39 -190 -81 -390 -183 -650 -304 -776
-71 -74 -110 -94 -192 -99 -73 -5 -137 16 -193 63 -19 16 -33 22 -35 15 -7
-22 40 -101 81 -137 142 -122 288 -117 408 14 134 147 229 397 317 837 27 130
30 140 51 139 20 -1 22 3 19 50 -3 50 -4 51 -55 79 l-52 28 -6 -23z"/>
<path d="M2150 2097 c0 -2 -83 -209 -184 -460 l-185 -457 113 0 114 0 32 90
32 90 177 0 177 0 33 -90 33 -90 113 0 112 0 -185 460 -186 460 -98 0 c-54 0
-98 -1 -98 -3z m148 -407 c22 -58 43 -113 47 -122 7 -16 -2 -18 -95 -18 -77 0
-101 3 -98 13 59 160 94 244 100 239 3 -4 24 -54 46 -112z"/>
<path d="M2750 1641 l0 -461 105 0 105 0 0 169 0 168 113 5 c125 5 176 21 241
78 58 51 79 101 84 201 4 72 1 93 -18 137 -27 62 -82 113 -149 138 -37 14 -89
18 -263 22 l-218 4 0 -461z m339 283 c17 -4 45 -19 61 -34 25 -24 30 -36 30
-77 0 -85 -49 -123 -160 -123 l-60 0 0 120 0 120 49 0 c27 0 63 -3 80 -6z"/>
<path d="M3456 2088 c8 -14 121 -180 220 -323 l62 -90 -130 -185 c-72 -102
-150 -213 -175 -247 l-44 -63 130 0 130 0 102 148 c56 81 105 151 109 155 4 5
56 -62 115 -147 l108 -156 134 0 c105 0 133 3 127 13 -5 6 -84 116 -176 244
-92 127 -168 235 -168 238 0 3 65 98 145 210 80 112 145 207 145 210 0 3 -57
5 -127 5 l-128 -1 -84 -124 -84 -124 -44 62 c-24 34 -62 90 -85 125 l-40 62
-125 0 c-96 0 -123 -3 -117 -12z"/>
<path d="M893 2025 c-163 -50 -249 -183 -267 -411 l-7 -79 32 65 32 65 11 -44
12 -45 13 45 c29 96 79 171 144 215 23 16 76 64 118 107 43 42 82 77 88 77 6
0 11 5 11 10 0 14 -137 11 -187 -5z"/>
<path d="M5820 1644 l0 -136 -25 16 c-14 10 -48 20 -75 23 -146 17 -245 -150
-170 -287 47 -85 167 -116 241 -61 29 21 29 21 29 1 0 -18 6 -20 60 -20 l60 0
0 300 0 300 -60 0 -60 0 0 -136z m-23 -226 c53 -49 15 -138 -59 -138 -50 0
-78 28 -78 77 0 74 83 112 137 61z"/>
<path d="M4486 1748 c-3 -7 -14 -128 -26 -268 -11 -140 -23 -265 -26 -277 -4
-22 -2 -23 64 -23 l69 0 12 167 c7 92 14 169 15 171 2 1 27 -66 56 -150 68
-198 64 -190 107 -186 l36 3 54 155 c30 85 58 159 62 163 4 4 11 -38 15 -95 4
-57 9 -131 13 -165 l6 -63 63 0 c59 0 64 2 64 21 0 29 -38 462 -46 517 l-5 42
-68 0 -68 0 -64 -165 c-73 -191 -58 -194 -140 23 l-54 142 -68 0 c-45 0 -69
-4 -71 -12z"/>
<path d="M6042 1737 c-45 -48 -16 -120 48 -120 41 0 70 28 70 70 0 66 -74 97
-118 50z"/>
<path d="M5230 1539 c-74 -30 -130 -107 -130 -179 0 -43 29 -107 61 -137 80
-73 226 -68 298 11 28 30 29 27 -24 54 -40 20 -41 20 -64 1 -33 -27 -92 -25
-119 4 -41 43 -31 47 108 47 l130 0 0 34 c0 71 -36 125 -105 157 -43 20 -115
24 -155 8z m120 -89 c33 -33 24 -40 -50 -40 -67 0 -70 1 -60 20 23 42 78 52
110 20z"/>
<path d="M6347 1540 c-72 -22 -137 -108 -137 -181 0 -52 39 -119 88 -154 39
-27 52 -30 115 -30 40 0 82 6 94 13 l23 12 -22 45 c-18 36 -24 42 -39 34 -48
-25 -114 9 -124 66 -12 66 66 126 124 96 18 -10 23 -7 42 30 11 23 17 45 12
49 -29 26 -120 37 -176 20z"/>
<path d="M6030 1360 l0 -180 60 0 60 0 0 180 0 180 -60 0 -60 0 0 -180z"/>
</g>
</svg>
